<svg xmlns="http://www.w3.org/2000/svg" width="760" height="430" viewBox="0 0 760 430">
<rect width="100%" height="100%" fill="#ffffff"/>
<text x="380.0" y="28" text-anchor="middle" font-family="Arial" font-size="18">Null Attractor vs Threshold Baseline</text>
<line x1="58" y1="372" x2="702" y2="372" stroke="#111827"/>
<line x1="58" y1="58" x2="58" y2="372" stroke="#111827"/>
<text x="380.0" y="416" text-anchor="middle" font-family="Arial" font-size="13">R(X)</text>
<text x="16" y="215.0" transform="rotate(-90 16 215.0)" text-anchor="middle" font-family="Arial" font-size="13">mean response</text>
<polyline points="58.0,261.1 150.0,132.4 242.0,78.9 334.0,64.7 426.0,59.1 518.0,58.5 610.0,58.2 702.0,58.3" fill="none" stroke="#0f766e" stroke-width="3"/>
<polyline points="58.0,372.0 150.0,372.0 242.0,147.7 334.0,58.0 426.0,58.0 518.0,58.0 610.0,58.0 702.0,58.0" fill="none" stroke="#dc2626" stroke-width="3" stroke-dasharray="7 5"/>
<circle cx="550" cy="64" r="5" fill="#0f766e"/><text x="564" y="68" font-family="Arial" font-size="12">m_null</text>
<circle cx="550" cy="84" r="5" fill="#dc2626"/><text x="564" y="88" font-family="Arial" font-size="12">threshold block</text>
</svg>