<svg xmlns="http://www.w3.org/2000/svg" width="760" height="430" viewBox="0 0 760 430">
<rect width="100%" height="100%" fill="#ffffff"/>
<text x="380.0" y="28" text-anchor="middle" font-family="Arial" font-size="18">Attention Entropy Across Transition</text>
<line x1="58" y1="372" x2="702" y2="372" stroke="#111827"/>
<line x1="58" y1="58" x2="58" y2="372" stroke="#111827"/>
<text x="380.0" y="416" text-anchor="middle" font-family="Arial" font-size="13">R(X)</text>
<text x="16" y="215.0" transform="rotate(-90 16 215.0)" text-anchor="middle" font-family="Arial" font-size="13">mean entropy</text>
<polyline points="58.0,91.6 150.0,76.7 242.0,61.9 334.0,67.4 426.0,58.0 518.0,279.9 610.0,370.7 702.0,371.1" fill="none" stroke="#0f766e" stroke-width="3"/>
<circle cx="58.0" cy="91.6" r="4" fill="#0f766e"/>
<circle cx="150.0" cy="76.7" r="4" fill="#0f766e"/>
<circle cx="242.0" cy="61.9" r="4" fill="#0f766e"/>
<circle cx="334.0" cy="67.4" r="4" fill="#0f766e"/>
<circle cx="426.0" cy="58.0" r="4" fill="#0f766e"/>
<circle cx="518.0" cy="279.9" r="4" fill="#0f766e"/>
<circle cx="610.0" cy="370.7" r="4" fill="#0f766e"/>
<circle cx="702.0" cy="371.1" r="4" fill="#0f766e"/>
<text x="58.0" y="391" text-anchor="middle" font-family="Arial" font-size="11">0.05</text>
<text x="219.0" y="391" text-anchor="middle" font-family="Arial" font-size="11">0.23</text>
<text x="380.0" y="391" text-anchor="middle" font-family="Arial" font-size="11">0.40</text>
<text x="541.0" y="391" text-anchor="middle" font-family="Arial" font-size="11">0.58</text>
<text x="702.0" y="391" text-anchor="middle" font-family="Arial" font-size="11">0.76</text>
<text x="50" y="376.0" text-anchor="end" font-family="Arial" font-size="11">0.00</text>
<text x="50" y="297.5" text-anchor="end" font-family="Arial" font-size="11">0.71</text>
<text x="50" y="219.0" text-anchor="end" font-family="Arial" font-size="11">1.42</text>
<text x="50" y="140.5" text-anchor="end" font-family="Arial" font-size="11">2.13</text>
<text x="50" y="62.0" text-anchor="end" font-family="Arial" font-size="11">2.84</text>
</svg>